<svg version="1.1" id="Layer_1" xmlns="http://www.w3.org/2000/svg" xmlns:xlink="http://www.w3.org/1999/xlink" x="0px" y="0px"
	 width="100%" viewBox="0 0 500 500" enable-background="new 0 0 500 500" xml:space="preserve">
<path fill="#000000" opacity="1.000000" stroke="none" 
	d="
M233.000000,501.000000 
	C155.333359,501.000000 78.166702,501.000000 1.000041,501.000000 
	C1.000028,334.333405 1.000028,167.666779 1.000014,1.000131 
	C167.666565,1.000087 334.333130,1.000087 500.999756,1.000044 
	C500.999847,167.666519 500.999847,334.333038 500.999939,500.999786 
	C411.833344,501.000000 322.666656,501.000000 233.000000,501.000000 
M424.281677,320.835968 
	C424.168884,321.242035 424.056122,321.648132 424.036469,322.038086 
	C424.036469,322.038086 424.094025,321.963074 423.209686,321.570221 
	C415.965485,321.570221 408.721283,321.570221 401.182770,321.570221 
	C401.182770,317.641541 401.182770,313.854431 402.096161,310.041534 
	C409.384094,310.331909 416.671997,310.622284 424.182465,311.499908 
	C424.765381,312.225433 425.348267,312.950989 425.931183,313.676514 
	C426.194366,313.455505 426.457581,313.234467 426.720764,313.013458 
	C425.951263,312.009277 425.181732,311.005096 423.807770,309.320862 
	C417.385803,309.168732 410.964111,308.942413 404.541718,308.921478 
	C403.103821,308.916779 401.663635,309.631714 400.027008,310.932068 
	C400.027008,319.033325 400.027008,327.134552 400.027008,335.235809 
	C400.456329,335.234497 400.885651,335.233185 401.314972,335.231873 
	C401.314972,331.479950 401.314972,327.728027 401.612488,323.807739 
	C401.793365,323.657227 401.917664,323.469269 402.903961,323.036133 
	C409.969666,323.234039 417.035400,323.431915 424.153992,324.232483 
	C425.095764,325.163940 426.037506,326.095398 427.104095,327.294678 
	C427.193359,327.340393 427.282593,327.386108 427.371826,327.431854 
	C427.257477,327.280457 427.143127,327.129028 427.014496,326.295593 
	C426.386719,324.906433 425.758942,323.517242 425.679230,321.738922 
	C426.054932,320.697784 426.430634,319.656647 426.806305,318.615509 
	C426.395782,318.523926 425.985229,318.432343 425.574707,318.340759 
	C425.399261,319.157776 425.223816,319.974762 424.281677,320.835968 
M80.582504,309.658783 
	C81.457794,309.526093 82.333092,309.393433 83.208389,309.260773 
	C82.975868,308.835846 82.743355,308.410889 82.510841,307.985962 
	C81.669632,308.655914 80.828430,309.325897 80.045799,310.126221 
	C80.045799,310.126221 79.823235,310.079590 79.823235,310.079590 
	C79.823235,310.079590 79.993446,310.000427 80.582504,309.658783 
M237.031998,333.053467 
	C237.297272,333.260468 237.562546,333.467438 238.504791,334.202698 
	C237.329941,333.595856 236.929855,333.389221 237.271149,332.493561 
	C237.271149,324.786224 237.271149,317.078888 237.271149,309.371521 
	C237.043121,309.375458 236.815109,309.379395 236.587082,309.383331 
	C236.587082,317.344116 236.587082,325.304901 237.031998,333.053467 
M142.989502,322.218170 
	C142.807419,319.308197 142.625351,316.398193 142.443283,313.488220 
	C141.960526,313.507843 141.477768,313.527466 140.995010,313.547119 
	C140.995010,316.623047 140.995010,319.698975 140.072067,322.943909 
	C132.710052,322.894226 125.348045,322.844543 117.775513,322.448334 
	C117.594841,322.236176 117.371010,322.090088 116.948936,321.145752 
	C116.922684,318.553925 116.896431,315.962097 117.338036,312.886658 
	C117.593719,312.292145 117.849411,311.697632 118.917168,310.937317 
	C125.269043,310.636658 131.620911,310.336029 138.102493,310.304504 
	C138.194138,310.349518 138.285782,310.394531 138.377411,310.439575 
	C138.263458,310.283875 138.149490,310.128143 137.828415,309.185699 
	C131.499603,309.225403 125.170296,309.241455 118.843460,309.374939 
	C118.529099,309.381592 118.236290,310.409790 117.427109,311.387390 
	C117.230278,312.023865 117.033440,312.660309 116.154228,313.601501 
	C115.808243,319.912933 115.421379,326.222626 115.154572,332.537415 
	C115.107460,333.652374 115.561646,334.788544 115.784332,335.914917 
	C116.241028,335.874084 116.697716,335.833252 117.154411,335.792419 
	C117.154411,331.917267 117.154411,328.042084 118.061913,324.022034 
	C123.212563,324.017059 128.366394,324.119476 133.512695,323.967438 
	C136.670837,323.874084 139.817474,323.391144 142.989502,322.218170 
M175.443069,314.188599 
	C175.443069,319.735199 175.443069,325.281769 175.443069,330.828369 
	C175.973129,330.819580 176.503204,330.810822 177.033264,330.802032 
	C177.033264,325.177856 177.033264,319.553680 177.285385,313.375519 
	C177.569595,312.625153 177.853790,311.874786 178.945160,310.949768 
	C183.875229,310.638916 188.802063,310.153687 193.736191,310.062500 
	C199.567230,309.954681 200.923141,311.482758 200.964035,317.477386 
	C200.991074,321.442078 200.969147,325.407104 200.969147,329.371979 
	C202.428604,329.072693 202.887833,328.712219 202.883362,328.357605 
	C202.827057,323.892242 202.761917,319.425110 202.563736,314.964478 
	C202.500946,313.551025 202.458145,311.839172 201.682800,310.807526 
	C198.696533,306.834106 181.691498,306.660553 178.023621,310.401245 
	C177.921692,310.505157 177.926758,310.713989 177.284225,311.019958 
	C176.845444,311.831543 176.406677,312.643127 175.443069,314.188599 
M284.953522,310.071136 
	C291.943542,310.071136 298.933563,310.071136 305.923584,310.071136 
	C305.925232,309.739685 305.926910,309.408234 305.928558,309.076782 
	C298.632477,309.076782 291.336365,309.076782 283.307495,309.105591 
	C282.180756,311.524567 280.377930,313.862549 280.076385,316.380341 
	C279.545135,320.815826 279.882599,325.362000 279.972626,329.859558 
	C279.990662,330.761719 280.527344,331.653503 280.824921,332.550079 
	C281.883606,327.057587 281.683289,321.754517 281.981384,316.479614 
	C282.102020,314.344940 283.310394,312.271759 284.953522,310.071136 
M161.055740,310.014526 
	C164.803986,310.014526 168.552246,310.014526 172.300491,310.014526 
	C172.296677,309.718475 172.292877,309.422394 172.289062,309.126343 
	C163.652939,309.126343 155.016815,309.126343 146.380692,309.126343 
	C146.370041,309.418060 146.359375,309.709747 146.348724,310.001465 
	C150.231384,310.001465 154.114029,310.001465 158.425705,310.854797 
	C158.425705,319.119873 158.425705,327.384949 158.425705,335.650024 
	C159.002457,335.642761 159.579208,335.635498 160.155960,335.628235 
	C160.155960,327.113708 160.155960,318.599182 161.055740,310.014526 
M311.047668,321.140442 
	C311.047668,317.852386 311.047668,314.564331 311.047668,311.276245 
	C310.906006,311.260406 310.764343,311.244537 310.622681,311.228699 
	C310.622681,319.266113 310.622681,327.303558 310.622681,335.340973 
	C310.798340,335.356873 310.973999,335.372772 311.149658,335.388672 
	C311.149658,331.654907 311.149658,327.921112 311.149658,324.313354 
	C319.707245,324.313354 327.769379,324.313354 336.268677,324.313354 
	C336.268677,328.217926 336.268677,331.819275 336.268677,335.420624 
	C336.354645,335.404083 336.440643,335.387543 336.526611,335.371002 
	C336.526611,327.326385 336.526611,319.281769 336.526611,311.237122 
	C336.293579,311.250641 336.060547,311.264130 335.827515,311.277618 
	C335.827515,314.855408 335.827515,318.433167 335.483795,322.188690 
	C335.268036,322.344147 335.111572,322.545654 334.086487,322.946411 
	C326.719757,322.895325 319.353058,322.844238 311.804321,322.460999 
	C311.646484,322.254517 311.446075,322.105194 311.047668,321.140442 
M247.563110,204.017349 
	C248.969803,205.825836 250.376480,207.634323 251.961563,209.672165 
	C271.897644,186.746887 290.998810,164.781708 309.248688,143.795471 
	C302.466492,136.495712 296.022034,129.559479 289.267609,122.289627 
	C276.682129,136.824142 264.332153,151.086639 250.690796,166.840530 
	C237.099319,152.373749 224.032043,138.464935 210.822205,124.404388 
	C179.460403,159.816650 148.754150,194.488678 117.444626,229.841919 
	C130.571915,229.841919 142.399933,229.946289 154.222229,229.733673 
	C156.076187,229.700317 158.426727,228.701157 159.657791,227.342346 
	C166.589661,219.691345 173.235870,211.782059 180.005081,203.983047 
	C190.443542,191.956558 200.902679,179.947998 211.255005,168.044571 
	C223.378510,180.061127 235.210663,191.788879 247.563110,204.017349 
M261.577118,284.087158 
	C278.440613,265.018463 295.304108,245.949753 312.807495,226.157516 
	C305.318878,219.460938 298.051697,212.962372 290.713867,206.400635 
	C278.933105,220.246597 266.578644,234.766861 253.749954,249.844437 
	C239.606567,235.680008 225.904358,221.957413 212.037872,208.070297 
	C205.712708,215.269409 199.414124,222.438263 194.238052,228.329498 
	C214.723175,249.598053 234.808289,270.451294 255.075882,291.494019 
	C257.396606,288.846436 259.251282,286.730560 261.577118,284.087158 
M341.002167,214.497894 
	C344.875061,218.393524 348.905426,222.148102 352.565002,226.234756 
	C354.971436,228.921997 357.494751,230.030396 361.178833,229.939346 
	C371.992554,229.672119 382.817139,229.854492 393.637390,229.829269 
	C394.802948,229.826553 395.968079,229.617157 397.133392,229.503632 
	C396.640717,229.807541 396.148041,230.111450 395.655365,230.415359 
	C373.920715,207.779510 352.186096,185.143661 330.223541,162.270447 
	C323.482513,169.998856 317.288177,177.100464 310.517151,184.863281 
	C320.687408,194.744400 330.595276,204.370605 341.002167,214.497894 
M76.880180,333.068298 
	C76.880180,325.656738 76.880180,318.245148 76.880180,310.833588 
	C76.452713,310.819153 76.025253,310.804688 75.597786,310.790253 
	C74.242386,319.041016 75.172974,327.390594 76.010864,335.916626 
	C76.295624,335.267975 76.580376,334.619324 76.880180,333.068298 
M340.159424,318.550964 
	C340.282471,323.303497 340.405518,328.056061 340.528564,332.808594 
	C340.863739,332.772491 341.198944,332.736389 341.534119,332.700287 
	C341.534119,324.787018 341.534119,316.873749 341.534119,308.960480 
	C341.075928,308.960266 340.617737,308.960083 340.159546,308.959900 
	C340.159546,311.836029 340.159546,314.712128 340.159424,318.550964 
M323.495300,307.992676 
	C320.873505,307.992676 318.251709,307.992676 315.629913,307.992676 
	C315.665771,308.427094 315.701660,308.861511 315.737518,309.295929 
	C320.929749,309.295929 326.122009,309.295929 331.314240,309.295929 
	C331.302277,308.861511 331.290344,308.427094 331.278381,307.992676 
	C328.996887,307.992676 326.715424,307.992676 323.495300,307.992676 
M383.518463,310.007080 
	C387.575989,310.007080 391.633545,310.007080 395.691071,310.007080 
	C395.686768,309.730682 395.682434,309.454254 395.678101,309.177856 
	C388.222443,309.177856 380.766785,309.177856 373.311127,309.177856 
	C373.307404,309.454254 373.303650,309.730682 373.299927,310.007080 
	C376.379303,310.007080 379.458649,310.007080 383.518463,310.007080 
M180.191391,335.633667 
	C180.240036,335.266541 180.288666,334.899445 180.337311,334.532318 
	C180.074677,334.529877 179.812042,334.527435 179.549408,334.525024 
	C179.590683,334.894165 179.631958,335.263275 180.191391,335.633667 
M423.403229,334.693817 
	C423.622131,334.988495 423.841034,335.283173 424.059906,335.577820 
	C424.247650,335.397797 424.435364,335.217804 424.623108,335.037811 
	C424.338684,334.805969 424.054230,334.574158 423.403229,334.693817 
M140.382370,311.216888 
	C140.740692,311.264832 141.099030,311.312775 141.457352,311.360718 
	C141.460663,311.104248 141.463974,310.847748 141.467270,310.591278 
	C141.108246,310.631409 140.749207,310.671539 140.382370,311.216888 
M177.364975,333.699982 
	C177.488297,333.440582 177.611618,333.181213 177.734970,332.921844 
	C177.485474,332.846100 177.235977,332.770355 176.986481,332.694580 
	C176.960785,333.050262 176.935104,333.405945 177.364975,333.699982 
M198.523438,334.599792 
	C198.465683,334.827942 198.407913,335.056061 198.350143,335.284210 
	C198.493942,335.137054 198.637741,334.989899 198.523438,334.599792 
M426.472076,333.384766 
	C426.528442,333.165283 426.584839,332.945831 426.641235,332.726349 
	C426.501770,332.867981 426.362305,333.009583 426.472076,333.384766 
M202.226273,332.187531 
	C202.405350,332.127869 202.584427,332.068176 202.763504,332.008484 
	C202.583405,331.951050 202.403305,331.893616 202.226273,332.187531 
M427.590546,330.519043 
	C427.590546,330.519043 427.476685,330.588379 427.590546,330.519043 
M201.517502,334.406250 
	C201.517502,334.406250 201.586502,334.521057 201.517502,334.406250 
M371.566681,310.758301 
	C371.684113,310.677002 371.801544,310.595703 371.919006,310.514404 
	C371.825317,310.406708 371.740784,310.225067 371.635376,310.212036 
	C371.529388,310.198914 371.402679,310.353668 371.566681,310.758301 
z"/>
<path fill="#FCFCFC" opacity="1.000000" stroke="none" 
	d="
M247.302963,203.766998 
	C235.210663,191.788879 223.378510,180.061127 211.255005,168.044571 
	C200.902679,179.947998 190.443542,191.956558 180.005081,203.983047 
	C173.235870,211.782059 166.589661,219.691345 159.657791,227.342346 
	C158.426727,228.701157 156.076187,229.700317 154.222229,229.733673 
	C142.399933,229.946289 130.571915,229.841919 117.444626,229.841919 
	C148.754150,194.488678 179.460403,159.816650 210.822205,124.404388 
	C224.032043,138.464935 237.099319,152.373749 250.690796,166.840530 
	C264.332153,151.086639 276.682129,136.824142 289.267609,122.289627 
	C296.022034,129.559479 302.466492,136.495712 309.248688,143.795471 
	C290.998810,164.781708 271.897644,186.746887 251.961563,209.672165 
	C250.376480,207.634323 248.969803,205.825836 247.302963,203.766998 
z"/>
<path fill="#FDFDFD" opacity="1.000000" stroke="none" 
	d="
M261.341553,284.350922 
	C259.251282,286.730560 257.396606,288.846436 255.075882,291.494019 
	C234.808289,270.451294 214.723175,249.598053 194.238052,228.329498 
	C199.414124,222.438263 205.712708,215.269409 212.037872,208.070297 
	C225.904358,221.957413 239.606567,235.680008 253.749954,249.844437 
	C266.578644,234.766861 278.933105,220.246597 290.713867,206.400635 
	C298.051697,212.962372 305.318878,219.460938 312.807495,226.157516 
	C295.304108,245.949753 278.440613,265.018463 261.341553,284.350922 
z"/>
<path fill="#FCFCFC" opacity="1.000000" stroke="none" 
	d="
M340.752655,214.247345 
	C330.595276,204.370605 320.687408,194.744400 310.517151,184.863281 
	C317.288177,177.100464 323.482513,169.998856 330.223541,162.270447 
	C352.186096,185.143661 373.920715,207.779510 395.655365,230.415359 
	C396.148041,230.111450 396.640717,229.807541 397.133392,229.503632 
	C395.968079,229.617157 394.802948,229.826553 393.637390,229.829269 
	C382.817139,229.854492 371.992554,229.672119 361.178833,229.939346 
	C357.494751,230.030396 354.971436,228.921997 352.565002,226.234756 
	C348.905426,222.148102 344.875061,218.393524 340.752655,214.247345 
z"/>
<path fill="#D6D6D6" opacity="1.000000" stroke="none" 
	d="
M311.986328,322.793152 
	C319.353058,322.844238 326.719757,322.895325 334.807678,322.918274 
	C335.628418,322.597107 335.727966,322.304016 335.827515,322.010956 
	C335.827515,318.433167 335.827515,314.855408 335.827515,311.277618 
	C336.060547,311.264130 336.293579,311.250641 336.526611,311.237122 
	C336.526611,319.281769 336.526611,327.326385 336.526611,335.371002 
	C336.440643,335.387543 336.354645,335.404083 336.268677,335.420624 
	C336.268677,331.819275 336.268677,328.217926 336.268677,324.313354 
	C327.769379,324.313354 319.707245,324.313354 311.149658,324.313354 
	C311.149658,327.921112 311.149658,331.654907 311.149658,335.388672 
	C310.973999,335.372772 310.798340,335.356873 310.622681,335.340973 
	C310.622681,327.303558 310.622681,319.266113 310.622681,311.228699 
	C310.764343,311.244537 310.906006,311.260406 311.047668,311.276245 
	C311.047668,314.564331 311.047668,317.852386 311.085907,321.831238 
	C311.411530,322.612427 311.698944,322.702789 311.986328,322.793152 
z"/>
<path fill="#050505" opacity="1.000000" stroke="none" 
	d="
M177.881927,310.873901 
	C177.926758,310.713989 177.921692,310.505157 178.023621,310.401245 
	C181.691498,306.660553 198.696533,306.834106 201.682800,310.807526 
	C202.458145,311.839172 202.500946,313.551025 202.563736,314.964478 
	C202.761917,319.425110 202.827057,323.892242 202.883362,328.357605 
	C202.887833,328.712219 202.428604,329.072693 200.969147,329.371979 
	C200.969147,325.407104 200.991074,321.442078 200.964035,317.477386 
	C200.923141,311.482758 199.567230,309.954681 193.736191,310.062500 
	C188.802063,310.153687 183.875229,310.638916 178.475769,310.975525 
	C178.006378,311.001251 177.881943,310.873901 177.881927,310.873901 
z"/>
<path fill="#8B8B8B" opacity="1.000000" stroke="none" 
	d="
M76.872658,333.519470 
	C76.580376,334.619324 76.295624,335.267975 76.010864,335.916626 
	C75.172974,327.390594 74.242386,319.041016 75.597786,310.790253 
	C76.025253,310.804688 76.452713,310.819153 76.880180,310.833588 
	C76.880180,318.245148 76.880180,325.656738 76.872658,333.519470 
z"/>
<path fill="#B6B6B6" opacity="1.000000" stroke="none" 
	d="
M160.155960,310.084656 
	C160.155960,318.599182 160.155960,327.113708 160.155960,335.628235 
	C159.579208,335.635498 159.002457,335.642761 158.425705,335.650024 
	C158.425705,327.384949 158.425705,319.119873 158.571747,310.406891 
	C159.197174,310.000854 159.676575,310.042755 160.155960,310.084656 
z"/>
<path fill="#8B8B8B" opacity="1.000000" stroke="none" 
	d="
M340.159485,318.069611 
	C340.159546,314.712128 340.159546,311.836029 340.159546,308.959900 
	C340.617737,308.960083 341.075928,308.960266 341.534119,308.960480 
	C341.534119,316.873749 341.534119,324.787018 341.534119,332.700287 
	C341.198944,332.736389 340.863739,332.772491 340.528564,332.808594 
	C340.405518,328.056061 340.282471,323.303497 340.159485,318.069611 
z"/>
<path fill="#8B8B8B" opacity="1.000000" stroke="none" 
	d="
M284.023804,310.170593 
	C283.310394,312.271759 282.102020,314.344940 281.981384,316.479614 
	C281.683289,321.754517 281.883606,327.057587 280.824921,332.550079 
	C280.527344,331.653503 279.990662,330.761719 279.972626,329.859558 
	C279.882599,325.362000 279.545135,320.815826 280.076385,316.380341 
	C280.377930,313.862549 282.180756,311.524567 283.640137,309.364197 
	C283.989777,309.805389 284.006805,309.988007 284.023804,310.170593 
z"/>
<path fill="#E0E0E0" opacity="1.000000" stroke="none" 
	d="
M424.101105,323.629822 
	C417.035400,323.431915 409.969666,323.234039 402.207184,323.108276 
	C401.510406,323.180420 401.171204,323.518951 401.171204,323.518951 
	C401.171204,323.518951 401.314972,323.976105 401.314972,323.976105 
	C401.314972,327.728027 401.314972,331.479950 401.314972,335.231873 
	C400.885651,335.233185 400.456329,335.234497 400.027008,335.235809 
	C400.027008,327.134552 400.027008,319.033325 400.364838,310.495331 
	C400.702667,310.058594 401.182770,310.067352 401.182770,310.067352 
	C401.182770,313.854431 401.182770,317.641541 401.182770,321.570221 
	C408.721283,321.570221 415.965485,321.570221 423.668152,322.182983 
	C424.118103,323.073792 424.109619,323.351807 424.101105,323.629822 
z"/>
<path fill="#818181" opacity="1.000000" stroke="none" 
	d="
M117.154411,324.166931 
	C117.154411,328.042084 117.154411,331.917267 117.154411,335.792419 
	C116.697716,335.833252 116.241028,335.874084 115.784332,335.914917 
	C115.561646,334.788544 115.107460,333.652374 115.154572,332.537415 
	C115.421379,326.222626 115.808243,319.912933 116.543144,313.447388 
	C116.932060,313.293274 116.870186,313.370270 116.870186,313.370270 
	C116.896431,315.962097 116.922684,318.553925 116.974380,321.796997 
	C116.999825,322.448242 117.117386,322.882996 116.865631,323.004639 
	C116.794060,323.473145 116.974236,323.820038 117.154411,324.166931 
z"/>
<path fill="#D6D6D6" opacity="1.000000" stroke="none" 
	d="
M284.488647,310.120850 
	C284.006805,309.988007 283.989777,309.805389 284.006531,309.349792 
	C291.336365,309.076782 298.632477,309.076782 305.928558,309.076782 
	C305.926910,309.408234 305.925232,309.739685 305.923584,310.071136 
	C298.933563,310.071136 291.943542,310.071136 284.488647,310.120850 
z"/>
<path fill="#030303" opacity="1.000000" stroke="none" 
	d="
M117.933441,310.962280 
	C118.236290,310.409790 118.529099,309.381592 118.843460,309.374939 
	C125.170296,309.241455 131.499603,309.225403 137.914886,309.593384 
	C138.001343,310.001099 137.972794,310.035400 137.972794,310.035400 
	C131.620911,310.336029 125.269043,310.636658 118.469818,310.982422 
	C118.022476,311.027527 117.933441,310.962280 117.933441,310.962280 
z"/>
<path fill="#8B8B8B" opacity="1.000000" stroke="none" 
	d="
M177.033264,313.929504 
	C177.033264,319.553680 177.033264,325.177856 177.033264,330.802032 
	C176.503204,330.810822 175.973129,330.819580 175.443069,330.828369 
	C175.443069,325.281769 175.443069,319.735199 175.972046,313.940613 
	C176.678421,313.771576 176.855850,313.850525 177.033264,313.929504 
z"/>
<path fill="#020202" opacity="1.000000" stroke="none" 
	d="
M323.964600,307.992676 
	C326.715424,307.992676 328.996887,307.992676 331.278381,307.992676 
	C331.290344,308.427094 331.302277,308.861511 331.314240,309.295929 
	C326.122009,309.295929 320.929749,309.295929 315.737518,309.295929 
	C315.701660,308.861511 315.665771,308.427094 315.629913,307.992676 
	C318.251709,307.992676 320.873505,307.992676 323.964600,307.992676 
z"/>
<path fill="#D6D6D6" opacity="1.000000" stroke="none" 
	d="
M160.605850,310.049591 
	C159.676575,310.042755 159.197174,310.000854 158.357239,309.980225 
	C154.114029,310.001465 150.231384,310.001465 146.348724,310.001465 
	C146.359375,309.709747 146.370041,309.418060 146.380692,309.126343 
	C155.016815,309.126343 163.652939,309.126343 172.289062,309.126343 
	C172.292877,309.422394 172.296677,309.718475 172.300491,310.014526 
	C168.552246,310.014526 164.803986,310.014526 160.605850,310.049591 
z"/>
<path fill="#D6D6D6" opacity="1.000000" stroke="none" 
	d="
M117.608162,324.094482 
	C116.974236,323.820038 116.794060,323.473145 117.088150,323.035309 
	C117.562408,322.944366 117.986031,322.794891 117.986031,322.794891 
	C125.348045,322.844543 132.710052,322.894226 140.859222,322.933777 
	C142.087357,322.976868 142.528305,323.030029 142.969269,323.083191 
	C139.817474,323.391144 136.670837,323.874084 133.512695,323.967438 
	C128.366394,324.119476 123.212563,324.017059 117.608162,324.094482 
z"/>
<path fill="#D6D6D6" opacity="1.000000" stroke="none" 
	d="
M401.639465,310.054443 
	C401.182770,310.067352 400.702667,310.058594 400.463562,310.036957 
	C401.663635,309.631714 403.103821,308.916779 404.541718,308.921478 
	C410.964111,308.942413 417.385803,309.168732 423.906189,309.843811 
	C423.989746,310.548737 423.974854,310.730682 423.959930,310.912659 
	C416.671997,310.622284 409.384094,310.331909 401.639465,310.054443 
z"/>
<path fill="#E0E0E0" opacity="1.000000" stroke="none" 
	d="
M236.587082,333.265686 
	C236.587082,325.304901 236.587082,317.344116 236.587082,309.383331 
	C236.815109,309.379395 237.043121,309.375458 237.271149,309.371521 
	C237.271149,317.078888 237.271149,324.786224 236.946259,332.837158 
	C236.621353,333.180756 236.587082,333.265686 236.587082,333.265686 
z"/>
<path fill="#D6D6D6" opacity="1.000000" stroke="none" 
	d="
M383.028259,310.007080 
	C379.458649,310.007080 376.379303,310.007080 373.299927,310.007080 
	C373.303650,309.730682 373.307404,309.454254 373.311127,309.177856 
	C380.766785,309.177856 388.222443,309.177856 395.678101,309.177856 
	C395.682434,309.454254 395.686768,309.730682 395.691071,310.007080 
	C391.633545,310.007080 387.575989,310.007080 383.028259,310.007080 
z"/>
<path fill="#030303" opacity="1.000000" stroke="none" 
	d="
M142.979385,322.650696 
	C142.528305,323.030029 142.087357,322.976868 141.320709,322.849304 
	C140.995010,319.698975 140.995010,316.623047 140.995010,313.547119 
	C141.477768,313.527466 141.960526,313.507843 142.443283,313.488220 
	C142.625351,316.398193 142.807419,319.308197 142.979385,322.650696 
z"/>
<path fill="#040404" opacity="1.000000" stroke="none" 
	d="
M424.127563,323.931152 
	C424.109619,323.351807 424.118103,323.073792 424.110321,322.379425 
	C424.094025,321.963074 424.036469,322.038086 424.261963,322.085632 
	C424.667358,322.097595 424.847229,322.062012 425.051514,322.053467 
	C425.075958,322.080505 425.131165,322.128082 425.131165,322.128082 
	C425.758942,323.517242 426.386719,324.906433 427.007996,326.647675 
	C427.001465,326.999756 426.979248,327.026886 426.979248,327.026886 
	C426.037506,326.095398 425.095764,325.163940 424.127563,323.931152 
z"/>
<path fill="#8B8B8B" opacity="1.000000" stroke="none" 
	d="
M79.987228,309.995850 
	C80.828430,309.325897 81.669632,308.655914 82.510841,307.985962 
	C82.743355,308.410889 82.975868,308.835846 83.208389,309.260773 
	C82.333092,309.393433 81.457794,309.526093 80.291740,309.823303 
	C80.000977,309.987854 79.987228,309.995850 79.987228,309.995850 
z"/>
<path fill="#050505" opacity="1.000000" stroke="none" 
	d="
M424.071198,311.206299 
	C423.974854,310.730682 423.989746,310.548737 424.208435,310.183838 
	C425.181732,311.005096 425.951263,312.009277 426.720764,313.013458 
	C426.457581,313.234467 426.194366,313.455505 425.931183,313.676514 
	C425.348267,312.950989 424.765381,312.225433 424.071198,311.206299 
z"/>
<path fill="#050505" opacity="1.000000" stroke="none" 
	d="
M425.048401,320.791748 
	C425.223816,319.974762 425.399261,319.157776 425.574707,318.340759 
	C425.985229,318.432343 426.395782,318.523926 426.806305,318.615509 
	C426.430634,319.656647 426.054932,320.697784 425.405212,321.933502 
	C425.131165,322.128082 425.075958,322.080505 425.083923,321.745239 
	C425.077362,321.203888 425.062866,320.997803 425.048401,320.791748 
z"/>
<path fill="#050505" opacity="1.000000" stroke="none" 
	d="
M177.159332,313.652527 
	C176.855850,313.850525 176.678421,313.771576 176.234451,313.573700 
	C176.406677,312.643127 176.845444,311.831543 177.583084,310.946930 
	C177.881943,310.873901 178.006378,311.001251 178.072174,311.062836 
	C177.853790,311.874786 177.569595,312.625153 177.159332,313.652527 
z"/>
<path fill="#E0E0E0" opacity="1.000000" stroke="none" 
	d="
M236.575562,333.181641 
	C236.929855,333.389221 237.329941,333.595856 238.504791,334.202698 
	C237.562546,333.467438 237.297272,333.260468 236.809540,333.159576 
	C236.587082,333.265686 236.621353,333.180756 236.575562,333.181641 
z"/>
<path fill="#050505" opacity="1.000000" stroke="none" 
	d="
M179.932312,335.633057 
	C179.631958,335.263275 179.590683,334.894165 179.549408,334.525024 
	C179.812042,334.527435 180.074677,334.529877 180.337311,334.532318 
	C180.288666,334.899445 180.240036,335.266541 179.932312,335.633057 
z"/>
<path fill="#040404" opacity="1.000000" stroke="none" 
	d="
M423.586487,334.518066 
	C424.054230,334.574158 424.338684,334.805969 424.623108,335.037781 
	C424.435364,335.217804 424.247650,335.397797 424.059937,335.577820 
	C423.841034,335.283173 423.622131,334.988495 423.586487,334.518066 
z"/>
<path fill="#030303" opacity="1.000000" stroke="none" 
	d="
M140.386276,310.964264 
	C140.749207,310.671539 141.108246,310.631409 141.467270,310.591278 
	C141.463974,310.847748 141.460663,311.104248 141.457352,311.360718 
	C141.099030,311.312775 140.740692,311.264832 140.386276,310.964264 
z"/>
<path fill="#050505" opacity="1.000000" stroke="none" 
	d="
M177.137207,333.730804 
	C176.935104,333.405945 176.960785,333.050262 176.986481,332.694580 
	C177.235977,332.770355 177.485474,332.846100 177.734955,332.921844 
	C177.611618,333.181213 177.488297,333.440582 177.137207,333.730804 
z"/>
<path fill="#050505" opacity="1.000000" stroke="none" 
	d="
M198.652496,334.721283 
	C198.637741,334.989899 198.493942,335.137054 198.350143,335.284210 
	C198.407913,335.056061 198.465683,334.827942 198.652496,334.721283 
z"/>
<path fill="#030303" opacity="1.000000" stroke="none" 
	d="
M116.884331,313.295044 
	C117.033440,312.660309 117.230278,312.023865 117.680275,311.174835 
	C117.933441,310.962280 118.022476,311.027527 118.063789,311.065308 
	C117.849411,311.697632 117.593719,312.292145 117.104111,313.128479 
	C116.870186,313.370270 116.932060,313.293274 116.884331,313.295044 
z"/>
<path fill="#040404" opacity="1.000000" stroke="none" 
	d="
M426.347473,333.267975 
	C426.362305,333.009583 426.501770,332.867981 426.641235,332.726349 
	C426.584839,332.945831 426.528442,333.165283 426.347473,333.267975 
z"/>
<path fill="#050505" opacity="1.000000" stroke="none" 
	d="
M202.224747,332.011841 
	C202.403305,331.893616 202.583405,331.951050 202.763504,332.008484 
	C202.584427,332.068176 202.405350,332.127869 202.224747,332.011841 
z"/>
<path fill="#040404" opacity="1.000000" stroke="none" 
	d="
M427.533630,330.553711 
	C427.476685,330.588379 427.590546,330.519043 427.533630,330.553711 
z"/>
<path fill="#8B8B8B" opacity="1.000000" stroke="none" 
	d="
M79.997208,309.994141 
	C79.993446,310.000427 79.823235,310.079590 79.823235,310.079590 
	C79.823235,310.079590 80.045799,310.126221 80.016510,310.061035 
	C79.987228,309.995850 80.000977,309.987854 79.997208,309.994141 
z"/>
<path fill="#050505" opacity="1.000000" stroke="none" 
	d="
M201.552002,334.463654 
	C201.586502,334.521057 201.517502,334.406250 201.552002,334.463654 
z"/>
<path fill="#030303" opacity="1.000000" stroke="none" 
	d="
M138.018433,309.986755 
	C138.149490,310.128143 138.263458,310.283875 138.377411,310.439575 
	C138.285782,310.394531 138.194138,310.349518 138.037643,310.169952 
	C137.972794,310.035400 138.001343,310.001099 138.018433,309.986755 
z"/>
<path fill="#030303" opacity="1.000000" stroke="none" 
	d="
M117.880768,322.621613 
	C117.986031,322.794891 117.562408,322.944366 117.339897,322.913696 
	C117.117386,322.882996 116.999825,322.448242 117.051926,322.229187 
	C117.371010,322.090088 117.594841,322.236176 117.880768,322.621613 
z"/>
<path fill="#040404" opacity="1.000000" stroke="none" 
	d="
M427.015137,326.988708 
	C427.143127,327.129028 427.257477,327.280457 427.371826,327.431824 
	C427.282593,327.386108 427.193359,327.340393 427.041687,327.160767 
	C426.979248,327.026886 427.001465,326.999756 427.015137,326.988708 
z"/>
<path fill="#D6D6D6" opacity="1.000000" stroke="none" 
	d="
M371.425873,310.596588 
	C371.402679,310.353668 371.529388,310.198914 371.635376,310.212036 
	C371.740784,310.225067 371.825317,310.406708 371.919006,310.514404 
	C371.801544,310.595703 371.684113,310.677002 371.425873,310.596588 
z"/>
<path fill="#040404" opacity="1.000000" stroke="none" 
	d="
M401.463745,323.891907 
	C401.314972,323.976105 401.171204,323.518951 401.171204,323.518951 
	C401.171204,323.518951 401.510406,323.180420 401.747925,323.212158 
	C401.917664,323.469269 401.793365,323.657227 401.463745,323.891907 
z"/>
<path fill="#E0E0E0" opacity="1.000000" stroke="none" 
	d="
M424.665039,320.813843 
	C425.062866,320.997803 425.077362,321.203888 425.059479,321.718201 
	C424.847229,322.062012 424.667358,322.097595 424.215393,322.093689 
	C424.056122,321.648132 424.168884,321.242035 424.665039,320.813843 
z"/>
<path fill="#020202" opacity="1.000000" stroke="none" 
	d="
M335.655640,322.099823 
	C335.727966,322.304016 335.628418,322.597107 335.271606,322.841675 
	C335.111572,322.545654 335.268036,322.344147 335.655640,322.099823 
z"/>
<path fill="#020202" opacity="1.000000" stroke="none" 
	d="
M311.895325,322.627075 
	C311.698944,322.702789 311.411530,322.612427 311.163635,322.267548 
	C311.446075,322.105194 311.646484,322.254517 311.895325,322.627075 
z"/>
</svg>